<svg width="18" height="23" viewBox="0 0 18 23" fill="none" xmlns="http://www.w3.org/2000/svg">
<path d="M17.9998 9.49998C17.9998 16.5 8.99976 22.5 8.99976 22.5C8.99976 22.5 -0.000244141 16.5 -0.000244141 9.49998C-0.000244105 7.11304 0.947967 4.82385 2.63579 3.13602C4.32362 1.4482 6.61281 0.499985 8.99976 0.499985C11.3867 0.499985 13.6759 1.4482 15.3637 3.13602C17.0515 4.82385 17.9998 7.11304 17.9998 9.49998Z" fill="#C2C2C2"/>
<path d="M8.79976 13.3C11.0089 13.3 12.7998 11.5091 12.7998 9.29999C12.7998 7.09085 11.0089 5.29999 8.79976 5.29999C6.59062 5.29999 4.79976 7.09085 4.79976 9.29999C4.79976 11.5091 6.59062 13.3 8.79976 13.3Z" fill="white" stroke="white" stroke-linecap="round" stroke-linejoin="round"/>
</svg>
