<svg width="22" height="23" viewBox="0 0 22 23" fill="none" xmlns="http://www.w3.org/2000/svg">
<g clip-path="url(#clip0)">
<path d="M17.0336 12.0304H19.6116V18.2031H17.0336V12.0304Z" fill="#C2C2C2"/>
<path d="M12.1517 12.0304H14.7299V18.2031H12.1517V12.0304Z" fill="#C2C2C2"/>
<path d="M7.26967 12.0304H9.84779V18.2031H7.26967V12.0304Z" fill="#C2C2C2"/>
<path d="M2.38795 12.0304H4.96591V18.2031H2.38795V12.0304Z" fill="#C2C2C2"/>
<path d="M20.4713 10.0968V9.45229H1.52858V10.0968C1.52858 10.4528 1.81711 10.7413 2.17311 10.7413H19.8267C20.1826 10.7413 20.4713 10.4528 20.4713 10.0968Z" fill="#C2C2C2"/>
<path d="M21.355 19.4922H0.645081C0.289078 19.4922 0.000549316 19.7807 0.000549316 20.1367V21.8555C0.000549316 22.2115 0.289078 22.5 0.645081 22.5H21.355C21.711 22.5 21.9995 22.2115 21.9995 21.8555V20.1367C21.9995 19.7807 21.711 19.4922 21.355 19.4922Z" fill="#C2C2C2"/>
<path d="M0.645573 8.16322H21.3565C21.6449 8.16322 21.8982 7.97171 21.9767 7.69426C22.0551 7.41681 21.94 7.1209 21.6944 6.96983L11.3389 0.595688C11.1318 0.468124 10.8705 0.468124 10.6632 0.595688L0.307697 6.96983C0.0621373 7.12106 -0.0530055 7.41681 0.0255467 7.69426C0.104099 7.97171 0.35738 8.16322 0.645573 8.16322ZM10.563 4.291H11.4393C11.7953 4.291 12.0838 4.57953 12.0838 4.93553C12.0838 5.29153 11.7953 5.58006 11.4393 5.58006H10.563C10.207 5.58006 9.91843 5.29153 9.91843 4.93553C9.91843 4.57953 10.207 4.291 10.563 4.291Z" fill="#C2C2C2"/>
</g>
<defs>
<clipPath id="clip0">
<rect width="22" height="22" fill="white" transform="translate(-0.000244141 0.500015)"/>
</clipPath>
</defs>
</svg>
