<svg width="26" height="25" viewBox="0 0 26 25" fill="none" xmlns="http://www.w3.org/2000/svg">
<path d="M16.9469 16.1198C19.8128 13.2956 19.8128 8.71664 16.9469 5.89243C14.081 3.06822 9.43454 3.06822 6.56867 5.89243C3.70279 8.71664 3.70279 13.2956 6.56867 16.1198C9.43454 18.944 14.081 18.944 16.9469 16.1198ZM18.1416 19.8454C13.8424 22.8685 7.83243 22.4789 3.97411 18.6766C-0.324702 14.4403 -0.324702 7.5719 3.97411 3.33559C8.27291 -0.900723 15.2427 -0.900723 19.5415 3.33559C23.3998 7.13782 23.7951 13.0604 20.7275 17.2972C20.7656 17.3291 20.8028 17.3627 20.8387 17.3982L25.2126 21.7085C25.9291 22.4146 25.9291 23.5593 25.2126 24.2654C24.4962 24.9714 23.3346 24.9714 22.6181 24.2654L18.2442 19.9551C18.2082 19.9196 18.174 19.883 18.1416 19.8454Z" fill="#5648F8"/>
</svg>
